<?xml version="1.0" encoding="UTF-8" standalone="no"?>
<svg
   xmlns:dc="http://purl.org/dc/elements/1.1/"
   xmlns:cc="http://creativecommons.org/ns#"
   xmlns:rdf="http://www.w3.org/1999/02/22-rdf-syntax-ns#"
   xmlns:svg="http://www.w3.org/2000/svg"
   xmlns="http://www.w3.org/2000/svg"
   xmlns:sodipodi="http://sodipodi.sourceforge.net/DTD/sodipodi-0.dtd"
   xmlns:inkscape="http://www.inkscape.org/namespaces/inkscape"
   sodipodi:docname="Ke14Explosion.svg"
   inkscape:version="1.1-dev (085aa2501e, 2020-01-22)"
   inkscape:export-ydpi="123"
   inkscape:export-xdpi="123"
   inkscape:export-filename="/home/omega/Desktop/Explosion - KE14 Mic.png"
   id="svg8"
   version="1.1"
   viewBox="0 0 297 210"
   height="210mm"
   width="297mm">
  <defs
     id="defs2">
    <rect
       id="rect444"
       height="55.605537"
       width="179.42431"
       y="124.44827"
       x="181.209" />
    <rect
       id="rect438"
       height="67.464414"
       width="88.129125"
       y="120.92016"
       x="177.0581" />
  </defs>
  <sodipodi:namedview
     inkscape:window-maximized="1"
     inkscape:window-y="0"
     inkscape:window-x="1920"
     inkscape:window-height="1051"
     inkscape:window-width="2560"
     showgrid="false"
     inkscape:current-layer="layer1"
     inkscape:document-units="mm"
     inkscape:cy="293.29512"
     inkscape:cx="728.35361"
     inkscape:zoom="0.7"
     inkscape:pageshadow="2"
     inkscape:pageopacity="0.0"
     borderopacity="1.0"
     bordercolor="#666666"
     pagecolor="#ffffff"
     id="base" />
  <metadata
     id="metadata5">
    <rdf:RDF>
      <cc:Work
         rdf:about="">
        <dc:format>image/svg+xml</dc:format>
        <dc:type
           rdf:resource="http://purl.org/dc/dcmitype/StillImage" />
        <dc:title></dc:title>
      </cc:Work>
    </rdf:RDF>
  </metadata>
  <g
     id="layer1"
     inkscape:groupmode="layer"
     inkscape:label="Layer 1">
    <rect
       y="-2.3699708"
       x="-10.150747"
       height="215.65129"
       width="324.495"
       id="rect454"
       style="fill:#ffffff;fill-rule:evenodd;stroke-width:0.519519" />
    <g
       transform="matrix(0.61431485,0,0,0.61431485,82.645031,23.396158)"
       id="g185">
      <path
         id="path2172"
         stroke-width="2.0"
         stroke-opacity="1.0"
         stroke-linejoin="round"
         stroke-linecap="butt"
         stroke="rgb(0, 0, 0)"
         fill="none"
         d="m -18.335326,199.93558 2.33072,0.40667 2.64186,0.1434 0.17304,0.01 2.63948,-0.18389 0.0923,-0.007 2.5915999,-0.53314 0.0312,-0.006 2.48946,-0.8763 2.32992,-1.21179 2.34737999,-1.22079 0.11907,-0.0619 2.34711001,-1.22079 2.34739,-1.22105 2.34738,-1.22079 2.34738,-1.22078 2.3471201,-1.22106 2.34739,-1.22078 2.34738,-1.22079 2.34738,-1.22105 2.34712,-1.22079 2.34739,-1.22079 2.34738,-1.22105 2.34738,-1.22079 2.34712,-1.22079 2.34738,-1.22105 2.34739,-1.22079 2.34738,-1.22078 2.34712,-1.22079 2.34738,-1.22105 2.34739,-1.22079 2.34738,-1.22079 2.34738,-1.22105 2.34712,-1.22079 2.34738,-1.22078 2.34739,-1.22106 2.34738,-1.22078 2.34712,-1.22079 2.34738,-1.22105 2.34739,-1.22079 2.34738,-1.22079 2.34712,-1.22079 2.34738,-1.22105 2.34739,-1.22079 2.34738,-1.22078 2.34712,-1.22106 2.34738,-1.22078 2.34738,-1.22079 2.34739,-1.22105 2.34712,-1.22079 2.28705,-1.1893 2.34739,-1.22105 2.34712,-1.22079 2.34738,-1.22079 2.347376,-1.22105 0.63315,-0.32941 2.14974,-1.53035 1.9259,-1.81398 0.0225,-0.0212 1.67164,-2.05105 0.0579,-0.0712 1.39912,-2.24578 0.0913,-0.14658 1.12819,-2.39316 0.1135,-0.24103 0.85566,-2.50376 0.12012,-0.3511 0.59823,-2.57731 0.10848,-0.46778 0.34792,-2.62281 0.0778,-0.58553 0.11245,-2.64345 0.0294,-0.69479 -0.10901,-2.64372 -0.0328,-0.79322 -0.31909,-2.62652 -0.10662,-0.87815 -0.51859,-2.59477 -0.18812,-0.94192 -0.70432,-2.55058 -0.27146,-0.98293 -0.88503,-2.49343 -0.35666,-1.00489 -1.05463,-2.42649 -0.4355,-1.002507 -1.22105,-2.34712 -0.5088,-0.97843 -0.91784,-1.50336 -1.03055,-1.68751 -0.56277,-0.7919 -1.5322,-2.15688 -0.0545,-0.077 -1.443566,-1.75498 -0.88635,-1.07765 -1.82695,-1.91399 -0.56039,-0.58711 -0.10239,-0.10716 -1.96506,-1.77138 -0.65749,-0.59267 -2.10106,-1.608138 -0.63103,-0.482865 -2.227,-1.428485 -0.58764,-0.377031 -2.34632,-1.222904 -0.52467,-0.273315 -2.45216,-0.99351 -0.44556,-0.180446 -2.54053,-0.738188 -0.35692,-0.103716 -2.60641,-0.454819 -0.26459,-0.04604 -2.64186,-0.143668 -0.17304,-0.0095 -2.63922,0.18415 -0.0926,0.0063 -2.59159,0.533135 -0.0312,0.0066 -2.48947,0.876035 -2.32992,1.211792 -2.34738,1.221052 -2.34712,1.220787 -2.34739,1.220788 -2.34738,1.221056 -0.63341,0.3294 -2.34712,1.22079 -2.34738,1.22079 -2.34739,1.22079 -2.34738,1.22105 -2.34712,1.22079 -2.34738,1.22078 -2.34739,1.22106 -2.34738,1.22078 -2.34712,1.22079 -2.34738,1.22105 -2.34738,1.22079 -2.34739,1.22079 -2.34712,1.22105 -2.34738,1.22079 -2.34738,1.220777 -2.34739,1.22079 -2.34738,1.22105 -2.34712,1.22079 -2.3473801,1.22079 -2.34739,1.22105 -2.34738,1.22079 -2.34712,1.22079 -2.34738001,1.22105 -2.34737999,1.22079 -2.34739,1.22078 -2.34711,1.22106 -2.34739,1.22078 -2.3473799,1.22079 -2.34738,1.22105 -2.34712,1.22079 -2.34739,1.22079 -2.34738,1.22079 -2.34738,1.22105 -2.34712,1.22078 -2.34739,1.22079 -2.34738,1.22105 -2.34738,1.22079 -2.34739,1.22079 -2.28679,1.18957 -2.34738,1.22078 -0.1188,0.0619 -2.14974,1.53035 -1.9259,1.81424 -0.0225,0.0212 -1.67164,2.05079 -0.0579,0.0714 -1.39912,2.24579 -0.0913,0.14658 -1.02049,2.16482"
         inkscape:connector-curvature="0" />
      <path
         id="path2174"
         stroke-width="2.0"
         stroke-opacity="1.0"
         stroke-linejoin="round"
         stroke-linecap="butt"
         stroke="rgb(0, 0, 0)"
         fill="none"
         d="m 53.420734,82.320353 2.32992,-1.21179 2.48973,-0.876298 2.59133,-0.533135 0.0312,-0.0066 2.63948,-0.183885 0.0926,-0.0063 2.64186,0.143404 0.17277,0.0095 2.60641,0.454819 0.26459,0.04604 1.35678,0.39423 1.54093,0.447675 2.45216,0.99351 0.4453,0.18044 2.34632,1.22291 0.52467,0.27358 2.22726,1.42822 0.58764,0.37703 2.10106,1.60814 0.63077,0.48286 1.96532,1.77165 0.65749,0.5924 1.82668,1.914 0.66278,0.69426 1.68064,2.04338 0.64928,0.78925 1.53221,2.15715 0.61727,0.86863 1.37901,2.258217 0.56938,0.93265 1.22105,2.34739 0.5088,0.97843 1.05463,2.42649 0.4355,1.00251 0.88503,2.49317 0.35666,1.00488 0.704316,2.55032 0.27146,0.98319 0.51859,2.59451 0.18812,0.94218 0.31908,2.62652 0.10663,0.87815 0.10927,2.64345 0.0328,0.79349 -0.11245,2.64345 -0.0296,0.6948 -0.34793,2.62281 -0.0778,0.58579 -0.59823,2.5773 -0.10848,0.46779 -0.509046,1.48907 -0.46673,1.36552 -1.12818,2.39315 -0.11351,0.24104 -1.39885,2.24578 -0.0913,0.14658 -1.67164,2.05079 -0.0582,0.0714 -1.9259,1.81425 -0.0225,0.0212 -2.14947,1.53035"
         inkscape:connector-curvature="0" />
      <path
         id="path2176"
         stroke-width="2.0"
         stroke-opacity="1.0"
         stroke-linejoin="round"
         stroke-linecap="butt"
         stroke="rgb(0, 0, 0)"
         fill="none"
         d="m -38.434136,134.90126 -2.34738,1.22106 -2.34738,1.22078 -2.34739,1.22079 -0.21193,0.11033 -0.17145,0.12198 -1.73857,1.23586 -1.2708,1.19857 -0.45905,0.43286 -1.53432,1.88595 -1.32768,2.12407 -1.09987,2.3413 -0.85804,2.50269 -0.0111,0.0328 -0.59796,2.57757 -0.0291,0.12541 -0.34846,2.62282 -0.0299,0.22542 -0.1106,2.64346 -0.0135,0.32411 0.10742,2.64372 0.0167,0.41037 0.31936,2.62651 0.059,0.48499 0.51832,2.5945 0.10847,0.54451 0.70591,2.55006 0.16352,0.59028 0.88317,2.49423 0.2167,0.61251 1.05674,2.42543 0.27094,0.62204 1.21973,2.34765 0.31459,0.60589 1.37821,2.25849 0.35163,0.57626 1.533,2.15635 0.37703,0.53023 1.68169,2.04258 0.38788,0.47149 1.8251,1.91558 0.38655,0.40587 1.96691,1.76954 0.36301,0.32676 2.1,1.60946 0.32756,0.25109 2.22726,1.42822 0.2712,0.17383 2.34606,1.22343 0.20267,0.10557 2.45295,0.99166 0.12224,0.0492 2.54,0.74057 0.0352,0.0103 2.54873,0.44397 2.49846,0.13626 2.42755,-0.17198 0.64188,-0.13097 1.68804,-0.34448 2.03253,-0.71941 0.17912,-0.0635 2.06957,-1.07394 2.34739,-1.22105 2.3473799,-1.22079 2.34712,-1.22079 0.2122,-0.11033"
         inkscape:connector-curvature="0" />
      <path
         id="path2178"
         stroke-width="2.0"
         stroke-opacity="1.0"
         stroke-linejoin="round"
         stroke-linecap="butt"
         stroke="rgb(0, 0, 0)"
         fill="none"
         d="m -43.115936,143.23326 1.75049,-0.90858 1.87166,-0.65908 1.96903,-0.40402 2.05211,-0.1434 2.11402,0.11642 2.15529,0.3765 2.1762,0.62918 2.1762,0.88476 2.15529,1.12316 2.11429,1.35414 2.05184,1.57109 1.9693,1.77377 1.82668,1.914 0.0447,0.0471 1.68169,2.04285 0.0688,0.0836 1.5322,2.15715 0.082,0.11562 1.37901,2.25795 0.0847,0.13838 1.22,2.34791 0.0781,0.15002 1.0546199,2.4265 0.0659,0.1516 0.88451,2.4937 0.0468,0.13256 0.70458,2.55031 0.0288,0.10372 0.517,2.59477 0.0122,0.0609 0.31935,2.63129 0.10927,2.58206 -0.10927,2.50614 -0.31935,2.40903 -0.52917,2.28759 -0.73342,2.14391 -0.93134,1.97829 -1.1205099,1.79838 -1.29804,1.59491 -1.46368,1.37821 -1.61422,1.14961"
         inkscape:connector-curvature="0" />
      <path
         id="path2180"
         stroke-width="2.0"
         stroke-opacity="1.0"
         stroke-linejoin="round"
         stroke-linecap="butt"
         stroke="rgb(0, 0, 0)"
         fill="none"
         d="m -0.54923611,196.3944 2.14947001,-1.53035 1.9259,-1.81425 0.0225,-0.0212 1.67164,-2.05079 0.0579,-0.0714 1.39912,-2.24578 0.0913,-0.14658 1.12818,-2.39316 0.11351,-0.24103 0.85566,-2.50349 0.12012,-0.3511 0.59823,-2.57731 0.007,-0.0309 0.10134,-0.43683 0.3479201,-2.62282 0.0778,-0.58552 0.11245,-2.64345 0.0294,-0.69506 -0.10901,-2.64345 -0.0328,-0.79349 -0.3190901,-2.62652 -0.10662,-0.87815 -0.51859,-2.5945 -0.18812,-0.94218 -0.70432,-2.55032 -0.27146,-0.98319 -0.88503,-2.49344 -0.35666,-1.00462 -1.05463,-2.42676 -0.4355,-1.00224 -1.22105,-2.34738 -0.5088,-0.97817 -1.37874,-2.25822 -0.56965,-0.93265 -1.53247001,-2.15715 -0.617,-0.86863 -1.68089999,-2.04338 -0.64903,-0.78925 -1.82694,-1.91399 -0.66278,-0.69427 -1.96506,-1.77165 -0.65749,-0.59267 -2.1010599,-1.60813 -0.63103,-0.48287 -2.227,-1.42848 -0.58764,-0.37677 -2.34632,-1.22291 -0.52467,-0.27357 -0.44477,-0.18019 -2.45295,-0.99351 -2.54053,-0.73845 -0.35692,-0.10372 -2.60641,-0.45481 -0.26458,-0.046 -2.64187,-0.14367 -0.17304,-0.009 -2.63921,0.18388 -0.0926,0.007 -2.5916,0.53313 -0.0312,0.006 -2.48946,0.8763 -2.32992,1.2118"
         inkscape:connector-curvature="0" />
      <path
         id="path2182"
         stroke-width="2.0"
         stroke-opacity="1.0"
         stroke-linejoin="round"
         stroke-linecap="butt"
         stroke="rgb(0, 0, 0)"
         fill="none"
         d="m 251.87914,43.106197 0.68368,0.415396 2.37755,1.160991 0.0706,0.03466 2.46539,0.921014 2.45877,0.635265 2.42861,0.34581 2.37464,0.04842 2.30055,-0.244475 2.20001,-0.539221 2.07883,-0.823119 2.34739,-1.220787 2.34712,-1.220788 2.34738,-1.221052 0.72522,-0.377031 1.94046,-1.105429 1.78144,-1.376892 1.6084,-1.628775 1.41525,-1.86981 1.20756,-2.090738 0.99457,-2.293143 0.76729,-2.475442 0.52758,-2.592652 0.007,-0.03572 0.28046,-2.631017 0.0138,-0.129116 0.0503,-2.645304 0.004,-0.218017 -0.0781,-1.223169 -0.11006,-1.716881 -0.37412,-2.619111 -0.0365,-0.255058 -0.0161,-0.113771 -0.57124,-2.583391 -0.0937,-0.424131 -0.39979,-1.3417002 -0.49398,-1.65894 -0.92842,-2.463 -0.18732,-0.49715 -1.10093,-2.40586 -0.22146,-0.48445 -1.26471,-2.32409995 -0.25823,-0.47414 -1.10861,-1.73778005 -0.59901,-0.93901 -1.57295,-2.12751 -0.29872,-0.40428 -1.7219,-2.00872 -0.29845,-0.34846 -1.1311,-1.13691 -1.01653,-1.0218198 -2.00289,-1.72852 -0.25427,-0.21934 -2.13677,-1.56052 -0.20902,-0.15266 -2.26113,-1.37398 -0.14632,-0.0889 -2.37728,-1.16126 -0.0709,-0.0344 -2.46512,-0.92102 -2.45877,-0.63526 -2.42861,-0.34581 -2.3749,-0.0487 -2.30056,0.24474 -2.19974,0.53922 -2.07883,0.82286 -2.34739,1.22105 -2.34738,1.22079 -2.34738,1.22078 -0.72523,0.3773 -1.94018,1.10543 -1.78171,1.37689 -1.6084,1.6287798 -1.41499,1.86954 -1.20756,2.091 -0.99457,2.29288 -0.76756,2.47571005 -0.52758,2.59264995 -0.007,0.0357 -0.28046,2.63102 -0.0138,0.12885 -0.05,2.6453 -0.004,0.21802 0.16907,2.6405402 0.019,0.29951 0.37412,2.619375 0.0527,0.368565 0.57124,2.583392 0.0939,0.424391 0.75513,2.535767 0.13864,0.464873 0.93318,2.475706 0.1823,0.484188 1.10093,2.40612 0.22172,0.484453 1.26471,2.323835 0.25797,0.474398 1.42319,2.230437 0.28469,0.446352 1.57295,2.127515 0.29872,0.404019 1.72164,2.008981 0.29845,0.348192 1.86611,1.875631 0.28151,0.283369 1.54411,1.332441"
         inkscape:connector-curvature="0" />
      <path
         id="path2184"
         stroke-width="2.0"
         stroke-opacity="1.0"
         stroke-linejoin="round"
         stroke-linecap="butt"
         stroke="rgb(0, 0, 0)"
         fill="none"
         d="m 258.69931,20.031884 -0.26353,0.148431 -0.23918,0.187325 -0.21802,0.218017 -0.19076,0.254529 -0.16378,0.280194 -0.13653,0.309563 -0.1008,0.334697 -0.0741,0.356923 -0.0384,0.37174 -0.008,0.387879 0.0267,0.399256 0.0561,0.401638 0.0915,0.405871 0.11801,0.407458 0.15319,0.401108 0.17912,0.388409 0.0124,0.02302 0.19288,0.356659 0.23125,0.360098 0.25135,0.342371 0.27437,0.318293 0.2884,0.291836 0.30533,0.262466 0.31644,0.231246 0.32729,0.20029 0.32941,0.159544 0.33443,0.12647 0.33337,0.08467 0.32703,0.04789 0.31988,0.0042 0.313,-0.03228 0.29766,-0.07197 0.27913,-0.112448"
         inkscape:connector-curvature="0" />
      <path
         id="path2186"
         stroke-width="2.0"
         stroke-opacity="1.0"
         stroke-linejoin="round"
         stroke-linecap="butt"
         stroke="rgb(0, 0, 0)"
         fill="none"
         d="m 289.08458,14.115007 2.34739,-1.221052 2.34738,-1.220787 2.34738,-1.220785 2.34712,-1.2207902 0.41804,-0.21749 2.34739,-1.22078 2.34712,-1.22106 2.34738,-1.22078 2.34738,-1.22079 0.61463,-0.31988 0.26379,-0.14817 0.23918,-0.18732 0.21776,-0.21802 0.72813,-0.82947 0.17357,-0.22886 0.14658,-0.25797 0.12276,-0.2794 0.0926,-0.30242 0.0661,-0.32174 0.0362,-0.33759995 0.007,-0.35084 -0.023,-0.35983 -0.0527,-0.36592 -0.0817,-0.3683 -0.10822,-0.36619005 -0.0855,-0.23309 -0.0968,-0.25903 -0.11456,-0.254 -0.13467,-0.24315 -0.14923,-0.2339 -0.1143,-0.16536 -0.22727,-0.30692 -0.24713,-0.28892 -0.26431,-0.26353 -0.27544,-0.23918 -0.28654,-0.20796 -0.29448,-0.17965 -0.29977,-0.14658 -0.30189,-0.11272 -0.3011,-0.0778 -0.29739,-0.0421 -0.29051,-0.006"
         inkscape:connector-curvature="0" />
      <path
         id="path2188"
         stroke-width="2.0"
         stroke-opacity="1.0"
         stroke-linejoin="round"
         stroke-linecap="butt"
         stroke="rgb(0, 0, 0)"
         fill="none"
         d="m 305.89806,-4.2597772 0.76359,-0.082 0.28099,-0.0288 -1.04458,0.11086 -0.0402,0.004 -0.31009,0.0333 -0.29765,0.0754 -0.27914,0.11219 -2.34712,1.22105 -2.34738,1.22079 -2.34738,1.22078005 -2.34739,1.22079 -2.34712,1.22104995 -2.34738,1.22079 -2.34738,1.22079 -1.95845,1.01864"
         inkscape:connector-curvature="0" />
      <path
         id="path2190"
         stroke-width="2.0"
         stroke-opacity="1.0"
         stroke-linejoin="round"
         stroke-linecap="butt"
         stroke="rgb(0, 0, 0)"
         fill="none"
         d="m 257.90291,25.30794 -2.34738,1.221053 -2.34739,1.220787 -2.34738,1.220788 -2.34712,1.221052 -1.35281,0.703527 -0.26379,0.148431 -0.23919,0.18706 -0.21775,0.218282 -0.19076,0.254264 -0.16378,0.280194 -0.13362,0.310621 -0.10371,0.337079 -0.0741,0.353748 -0.0384,0.371739 -0.009,0.38788 0.027,0.399256 0.0561,0.401637 0.0915,0.409311 0.12092,0.404812 0.15002,0.40005 0.17912,0.388673 0.20532,0.379677 0.23151,0.360098 0.25135,0.342106 0.27437,0.318559 0.2884,0.291571 0.30533,0.26617 0.31935,0.232305 0.32438,0.195791 0.32914,0.159544 0.3347,0.126471 0.33338,0.08467 0.32676,0.04789 0.32305,0.0087 0.31009,-0.03334 0.29766,-0.07541 0.27914,-0.112448"
         inkscape:connector-curvature="0" />
      <path
         id="path2192"
         stroke-width="2.0"
         stroke-opacity="1.0"
         stroke-linejoin="round"
         stroke-linecap="butt"
         stroke="rgb(0, 0, 0)"
         fill="none"
         d="m 289.60528,18.706057 2.34712,-1.220787 2.34739,-1.221052 2.34738,-1.220788 0.71014,-0.369358 0.26353,-0.148432 0.23918,-0.18706 0.21802,-0.218281 0.72787,-0.829469 0.17383,-0.2286 0.14658,-0.257969 0.12276,-0.2794 0.0926,-0.302683 0.0659,-0.321469 0.0362,-0.337873 0.007,-0.350573 -0.023,-0.35983 -0.0524,-0.36592 -0.0817,-0.3683 -0.10822,-0.3661802 -0.0855,-0.23337 -0.0971,-0.25876 -0.1106,-0.2458"
         inkscape:connector-curvature="0" />
      <path
         id="path2194"
         stroke-width="2.0"
         stroke-opacity="1.0"
         stroke-linejoin="round"
         stroke-linecap="butt"
         stroke="rgb(0, 0, 0)"
         fill="none"
         d="m 234.82066,12.484909 -0.26062,0.149225 -0.24209,0.186267 -0.21802,0.218017 -0.1905,0.254529 -0.16377,0.280193 -0.13362,0.310621 -0.10398,0.33364 -0.0709,0.357981 -0.0413,0.370681 -0.006,0.388938 0.0238,0.398462 0.0593,0.402432 0.0886,0.405077 0.12092,0.408252 0.15002,0.40005 0.17912,0.388673 0.20531,0.379412 0.23125,0.360098 0.25453,0.343429 0.2712,0.317236 0.29157,0.292893 0.30533,0.262467 0.31617,0.231246 0.32438,0.199496 0.33232,0.160337 0.3347,0.126471 0.33046,0.08361 0.32967,0.04895 0.31989,0.0042 0.31035,-0.03334 0.29766,-0.07197 0.28204,-0.11139"
         inkscape:connector-curvature="0" />
      <path
         id="path2196"
         stroke-width="2.0"
         stroke-opacity="1.0"
         stroke-linejoin="round"
         stroke-linecap="butt"
         stroke="rgb(0, 0, 0)"
         fill="none"
         d="m 282.4401,-2.3934072 2.34739,-1.22079 0.23283,-0.12117 0.26061,-0.14923 0.2421,-0.18627 0.21801,-0.21828 0.72787,-0.8292 0.17092,-0.22966 0.14949,-0.25717 0.1196,-0.2802 0.0958,-0.30162 0.0659,-0.32174 0.0362,-0.33761 0.007,-0.35083 -0.023,-0.35984 -0.0524,-0.36591 -0.0817,-0.3683 -0.11113,-0.36698 -0.0826,-0.23231 -0.0971,-0.25902 -0.11721,-0.2548 -0.13176,-0.24236 -0.14923,-0.23389 -0.11456,-0.1653598 -0.22993,-0.30771 -0.24738,-0.28919 -0.26115,-0.26247 -0.27543,-0.23918 -0.28945,-0.20902 -0.29475,-0.17965 -0.29977,-0.14658 -0.29871,-0.11166 -0.3011,-0.0778 -0.29739,-0.0423 -0.29051,-0.005"
         inkscape:connector-curvature="0" />
      <path
         id="path2198"
         stroke-width="2.0"
         stroke-opacity="1.0"
         stroke-linejoin="round"
         stroke-linecap="butt"
         stroke="rgb(0, 0, 0)"
         fill="none"
         d="m 282.02577,-11.806487 0.76041,-0.0815 0.28099,-0.0288 -1.0414,0.11033 -0.0434,0.004 -0.31035,0.0333 -0.29739,0.0754 -0.28205,0.11166 -2.34738,1.22079 -1.92723,1.0024998"
         inkscape:connector-curvature="0" />
      <path
         id="path2200"
         stroke-width="2.0"
         stroke-opacity="1.0"
         stroke-linejoin="round"
         stroke-linecap="butt"
         stroke="rgb(0, 0, 0)"
         fill="none"
         d="m 104.13844,94.870073 2.52307,0.79587 2.52333,0.79586 2.52333,0.79587 2.52333,0.79587 2.52333,0.79586 2.52334,0.79587 2.52333,0.795867 2.52333,0.79586 2.52307,0.79587 2.52333,0.79587 2.52333,0.79586 2.52333,0.79587 2.52333,0.79587 2.63287,0.83026 2.34738,-1.22079 2.34712,-1.22105 2.34738,-1.22079 2.34739,-1.22078 2.34738,-1.220787 2.34739,-1.22105 2.34712,-1.22079 2.34739,-1.22079 2.34738,-1.22105 2.34738,-1.22079 2.34712,-1.22079 2.34739,-1.22105 2.34738,-1.22079 2.34738,-1.22078 2.34712,-1.22106 2.34738,-1.22078 2.34739,-1.22079 2.34738,-1.22079 2.34712,-1.22105 2.34738,-1.22079 2.34739,-1.220785 2.34738,-1.221052 2.34712,-1.220788 2.34738,-1.220787 2.34739,-1.221052 2.34738,-1.220788 2.34712,-1.220787 2.34738,-1.221052 2.34738,-1.220788 2.34739,-1.220787 2.34712,-1.221052 2.34738,-1.220788 2.34738,-1.220787 2.34739,-1.220788 2.34738,-1.221052 2.34712,-1.220787 2.34738,-1.220788 2.34738,-1.221052 2.34739,-1.220787 2.34712,-1.220788 2.34738,-1.221052 2.34738,-1.220788 2.34739,-1.220787 2.34712,-1.221052 2.34738,-1.220788 2.34738,-1.220787 2.34739,-1.220788 2.11666,-1.101195 -0.0804,-2.644511 -0.0553,-1.813983 -0.0572,-1.885686 -2.52333,-0.795866 -2.20213,-0.694532 -2.52333,-0.795866 -2.52307,-0.795867 -2.52333,-0.795867 -2.52333,-0.795866 -2.52333,-0.795867 -2.52333,-0.795867 -2.52333,-0.795866 -2.52333,-0.795867 -2.52333,-0.795867 -2.52307,-0.795866 -2.52333,-0.795602 -2.52333,-0.795867 -2.52333,-0.795867 -2.52334,-0.795866 -2.52333,-0.795867 -2.08835,-0.658812 -2.34739,1.221052 -2.34712,1.220787 -2.34738,1.220788 -2.34738,1.220787 -2.34739,1.221052 -2.34738,1.220788 -2.34712,1.220787 -2.34738,1.221052 -2.34738,1.220788 -2.34712,1.220787 -2.34739,1.221052 -2.34738,1.220788 -2.34738,1.220787 -2.34739,1.221052 -2.34711,1.220788 -2.34739,1.220787 -2.34738,1.220788 -2.34738,1.221052 -2.34712,1.220788 -2.34739,1.220787 -2.34738,1.221052 -2.34738,1.220788 -2.34712,1.220787 -2.3474,1.221052 -2.34738,1.220788 -2.34738,1.220787 -2.34712,1.221052 -2.34738,1.220788 -2.34739,1.220787 -2.34738,1.220788 -2.34712,1.221052 -2.34738,1.220787 -2.34739,1.220788 -2.34738,1.221052 -2.34738,1.220787 -2.34712,1.220788 -2.34739,1.221052 -2.34738,1.220787 -2.34738,1.220788 -2.34712,1.221052 -2.34738,1.220788 -2.34739,1.220787 -2.34738,1.221052 -2.77098,1.441186"
         inkscape:connector-curvature="0" />
      <path
         id="path2202"
         stroke-width="2.0"
         stroke-opacity="1.0"
         stroke-linejoin="round"
         stroke-linecap="butt"
         stroke="rgb(0, 0, 0)"
         fill="none"
         d="m 206.88992,52.842863 -0.0812,0.937684 -0.0878,1.010708 -0.2413,0.845344 -0.25982,0.910696 -0.39132,0.720195 -0.42201,0.776023 -0.52652,0.567002 -0.56727,0.611188 -0.64161,0.392377 -0.69189,0.423069"
         inkscape:connector-curvature="0" />
      <path
         id="path2204"
         stroke-width="2.0"
         stroke-opacity="1.0"
         stroke-linejoin="round"
         stroke-linecap="butt"
         stroke="rgb(0, 0, 0)"
         fill="none"
         d="m 202.97911,60.037149 2.34739,-1.220788 2.34712,-1.220787 2.23229,-1.160992 1.33376,-0.81571 1.09432,-1.178454 0.81333,-1.495955 0.50085,-1.756039 0.16907,-1.948656 -0.16907,-2.065867 -0.50085,-2.104496 -0.81333,-2.061633 -1.09432,-1.939925 -1.33376,-1.743604 -1.52136,-1.48008 -1.651,-1.159668 -1.71688,-0.795073 -1.71715,-0.399521 -1.65073,0.01138 -1.52162,0.421481 -2.34738,1.220788 -2.34712,1.221052 -2.23256,1.160991"
         inkscape:connector-curvature="0" />
      <path
         id="path2206"
         stroke-width="2.0"
         stroke-opacity="1.0"
         stroke-linejoin="round"
         stroke-linecap="butt"
         stroke="rgb(0, 0, 0)"
         fill="none"
         d="m 194.58071,64.178936 0.9308,-0.257968 2.34739,-1.220788 2.34738,-1.220787 2.34738,-1.220788 0.42545,-0.221456"
         inkscape:connector-curvature="0" />
      <path
         id="path2208"
         stroke-width="2.0"
         stroke-opacity="1.0"
         stroke-linejoin="round"
         stroke-linecap="butt"
         stroke="rgb(0, 0, 0)"
         fill="none"
         d="m 193.20011,39.52559 -2.34712,1.220788 -2.34738,1.221052 -2.34738,1.220788 -0.42519,0.221191 -1.33376,0.815711 -0.18706,0.201348"
         inkscape:connector-curvature="0" />
      <path
         id="path2210"
         stroke-width="2.0"
         stroke-opacity="1.0"
         stroke-linejoin="round"
         stroke-linecap="butt"
         stroke="rgb(0, 0, 0)"
         fill="none"
         d="m 185.29833,67.668526 1.60126,-0.01111 0.90329,-0.09657 1.52135,-0.421745 2.34739,-1.220788 1.38853,-0.722048 1.3335,-0.81571 0.18706,-0.201613 0.90752,-0.976841 0.81333,-1.495955 0.50059,-1.756039 0.0397,-0.456935 0.12964,-1.491457 -0.16933,-2.066131 -0.50059,-2.104496 -0.81333,-2.061633 -1.09458,-1.939925 -1.3335,-1.743604 -1.52162,-1.48008 -1.651,-1.159668 -0.46937,-0.217488 -1.24751,-0.577585 -1.71688,-0.399521 -0.88583,0.0061 v 0 l -0.76464,0.0053 -0.59055,0.163513 -0.93081,0.257968 -0.92075,0.478896"
         inkscape:connector-curvature="0" />
      <path
         id="path2212"
         stroke-width="2.0"
         stroke-opacity="1.0"
         stroke-linejoin="round"
         stroke-linecap="butt"
         stroke="rgb(0, 0, 0)"
         fill="none"
         d="m 181.09675,45.820822 -1.55125,0.806714 -1.3335,0.815711 -1.09458,1.178454 -0.58235,0.664898 -0.78899,1.451239 -0.48577,1.703123 -0.16405,1.890184 0.16405,2.003954 0.48577,2.04126 0.0794,0.214577 0.72231,1.830917 0.97181,1.722437 0.077,0.113771 1.29381,1.691217 1.47584,1.435629 1.60126,1.125008"
         inkscape:connector-curvature="0" />
      <path
         id="path2214"
         stroke-width="2.0"
         stroke-opacity="1.0"
         stroke-linejoin="round"
         stroke-linecap="butt"
         stroke="rgb(0, 0, 0)"
         fill="none"
         d="m 185.60419,44.238613 -0.0368,0.01905"
         inkscape:connector-curvature="0" />
      <path
         id="path2216"
         stroke-width="2.0"
         stroke-opacity="1.0"
         stroke-linejoin="round"
         stroke-linecap="butt"
         stroke="rgb(0, 0, 0)"
         fill="none"
         d="m 168.72854,72.691111 -0.0815,0.937684 -0.0876,1.010708 -0.24157,0.845344 -0.25955,0.910696 -0.39159,0.720195 -0.42121,0.775759 -0.52652,0.567002 -0.56833,0.611452 -0.64161,0.392377 -0.69189,0.423333 -0.73237,0.202936 -0.78898,0.218546 -0.79455,0.0056 -0.85698,0.0058 -0.82603,-0.192352 -0.89112,-0.206905 -0.82629,-0.382587 -0.42095,-0.195263"
         inkscape:connector-curvature="0" />
      <path
         id="path2218"
         stroke-width="2.0"
         stroke-opacity="1.0"
         stroke-linejoin="round"
         stroke-linecap="butt"
         stroke="rgb(0, 0, 0)"
         fill="none"
         d="m 156.4188,84.027453 0.93107,-0.25797 2.34711,-1.22079 2.34739,-1.22079 2.34738,-1.22105 2.34738,-1.220788 2.34712,-1.220787 2.34739,-1.221052 0.31035,-0.161396 1.33377,-0.81571 1.09431,-1.178455 0.81333,-1.495954 0.50086,-1.755775 0.16907,-1.948656 -0.16907,-2.066131 -0.50086,-2.104231 -0.60431,-1.532203 -0.20902,-0.529695 -1.09431,-1.939661 -1.33377,-1.743604 -1.52135,-1.480079 -0.67204,-0.472017 -0.97896,-0.687652 -1.71688,-0.795073 -1.71715,-0.399521 -1.65073,0.01138 -1.52162,0.421482 -2.34739,1.220787 -2.34711,1.220788 -2.23256,1.161256"
         inkscape:connector-curvature="0" />
      <path
         id="path2220"
         stroke-width="2.0"
         stroke-opacity="1.0"
         stroke-linejoin="round"
         stroke-linecap="butt"
         stroke="rgb(0, 0, 0)"
         fill="none"
         d="m 155.0382,59.374103 -2.34712,1.220787 -2.34739,1.220788 -2.34738,1.221052 -0.42519,0.221192 -1.33376,0.81571 -0.18706,0.201348"
         inkscape:connector-curvature="0" />
      <path
         id="path2222"
         stroke-width="2.0"
         stroke-opacity="1.0"
         stroke-linejoin="round"
         stroke-linecap="butt"
         stroke="rgb(0, 0, 0)"
         fill="none"
         d="m 154.04337,85.489273 0.85487,-0.4445 1.3335,-0.81571 0.18706,-0.20161 0.90752,-0.97685 0.81333,-1.49595 0.50059,-1.75604 0.0397,-0.4572 0.12964,-1.491456 -0.16933,-2.065867 -0.50059,-2.104495 -0.22305,-0.56515 -0.59028,-1.496484 -1.09458,-1.939925 -1.3335,-1.743604 -1.52162,-1.480079 -1.65101,-1.159669 -0.46911,-0.217487 -1.24777,-0.577586 -0.75168,-0.174889 -0.9652,-0.224632 -0.88583,0.0061 v 0 l -0.76465,0.0053 -0.59055,0.163512 -0.9308,0.257969 -0.92075,0.478896"
         inkscape:connector-curvature="0" />
      <path
         id="path2224"
         stroke-width="2.0"
         stroke-opacity="1.0"
         stroke-linejoin="round"
         stroke-linecap="butt"
         stroke="rgb(0, 0, 0)"
         fill="none"
         d="m 147.13641,87.516773 1.60126,-0.0109 0.90329,-0.0968 1.52135,-0.42149 1.55126,-0.80671"
         inkscape:connector-curvature="0" />
      <path
         id="path2226"
         stroke-width="2.0"
         stroke-opacity="1.0"
         stroke-linejoin="round"
         stroke-linecap="butt"
         stroke="rgb(0, 0, 0)"
         fill="none"
         d="m 142.93483,65.669334 -1.55126,0.806715 -1.3335,0.81571 -1.09458,1.178454 -0.58234,0.664898 -0.78899,1.45124 -0.12145,0.426244 -0.36433,1.276879 -0.16404,1.890183 v 0.0048 l 0.16351,1.999191 0.48578,2.041261 0.0794,0.214577 0.72232,1.830652 0.62653,1.110725 0.34528,0.61198 0.077,0.11377 1.29355,1.69095 1.47611,1.4359 1.60126,1.12474"
         inkscape:connector-curvature="0" />
      <path
         id="path2228"
         stroke-width="2.0"
         stroke-opacity="1.0"
         stroke-linejoin="round"
         stroke-linecap="butt"
         stroke="rgb(0, 0, 0)"
         fill="none"
         d="m 147.44227,64.087126 -0.0368,0.01905"
         inkscape:connector-curvature="0" />
      <path
         id="path2230"
         stroke-width="2.0"
         stroke-opacity="1.0"
         stroke-linejoin="round"
         stroke-linecap="butt"
         stroke="rgb(0, 0, 0)"
         fill="none"
         d="m 142.96472,95.207943 v -0.35745 l -0.16536,-0.35057 -0.32306,-0.32994 -0.46804,-0.29686 -0.59505,-0.25215 -0.69956,-0.19817 -0.77682,-0.136 -0.82444,-0.0693 -0.84032,8e-4 -0.82364,0.0701 -0.77576,0.13758 -0.69797,0.19897 -0.5932,0.25321 -0.46567,0.29739 -0.32014,0.33046 -0.16246,0.35058"
         inkscape:connector-curvature="0" />
      <path
         id="path2232"
         stroke-width="2.0"
         stroke-opacity="1.0"
         stroke-linejoin="round"
         stroke-linecap="butt"
         stroke="rgb(0, 0, 0)"
         fill="none"
         d="m 108.04766,83.061983 -10e-4,-0.35745 -0.16537,-0.35031 -0.32305,-0.32993 -0.46805,-0.29687 -0.59505,-0.25241 -0.69956,-0.19791 -0.77681,-0.13626 -0.82444,-0.06906 -0.7411,5.3e-4 h -0.0992 l -0.82365,0.07037 -0.77576,0.13732 -0.69797,0.19897 -0.59319,0.25321 -0.465406,0.29765 -0.32041,0.33047 -0.16245,0.35057 v 0.40957"
         inkscape:connector-curvature="0" />
      <path
         id="path2234"
         stroke-width="2.0"
         stroke-opacity="1.0"
         stroke-linejoin="round"
         stroke-linecap="butt"
         stroke="rgb(0, 0, 0)"
         fill="none"
         d="m 135.49951,74.931074 v -1.518179 l -2.49899,-0.869421 -0.42201,-0.146579 -2.34739,1.220787 -0.0413,0.02143 v 2.645834 0.769143"
         inkscape:connector-curvature="0" />
      <path
         id="path2236"
         stroke-width="2.0"
         stroke-opacity="1.0"
         stroke-linejoin="round"
         stroke-linecap="butt"
         stroke="rgb(0, 0, 0)"
         fill="none"
         d="m 136.93487,74.18442 -1.43536,0.746654 -0.28549,0.148431 v 1.896798"
         inkscape:connector-curvature="0" />
      <path
         id="path2238"
         stroke-width="2.0"
         stroke-opacity="1.0"
         stroke-linejoin="round"
         stroke-linecap="butt"
         stroke="rgb(0, 0, 0)"
         fill="none"
         d="m 143.83229,65.202345 v -0.381794 l -2.49899,-0.869421 -1.9759,-0.687387 -2.34739,1.221052 -1.31207,0.68236 v 2.645833 2.585773"
         inkscape:connector-curvature="0" />
      <path
         id="path2240"
         stroke-width="2.0"
         stroke-opacity="1.0"
         stroke-linejoin="round"
         stroke-linecap="butt"
         stroke="rgb(0, 0, 0)"
         fill="none"
         d="m 175.03726,58.064151 -2.49899,-0.869156 -1.7608,-0.612511 -1.22687,0.638175"
         inkscape:connector-curvature="0" />
      <path
         id="path2242"
         stroke-width="2.0"
         stroke-opacity="1.0"
         stroke-linejoin="round"
         stroke-linecap="butt"
         stroke="rgb(0, 0, 0)"
         fill="none"
         d="m -51.600596,196.58146 -0.31935,-2.63102 -0.51726,-2.59503 -0.0122,-0.0609 -0.70458,-2.55032 -0.0286,-0.10372 -0.88424,-2.4937 -0.0471,-0.13255 -1.0549,-2.4265 -0.0659,-0.15134 -1.21973,-2.34791 -0.078,-0.15002 -1.379,-2.25822 -0.0847,-0.13838 -1.53221,-2.15688 -0.082,-0.11589 -1.68169,-2.04258 -0.0688,-0.0836 -1.82668,-1.91426 -0.045,-0.0471 -1.96903,-1.77377 -2.05211,-1.5711 -2.11402,-1.35413 -2.15556,-1.12316 -2.17593,-0.88477 -2.1762,-0.62918 -2.15556,-0.37623 -2.11402,-0.11669 -2.05184,0.14341 -1.9693,0.40402 -1.87166,0.65907 -1.75022,0.90858 -2.34738,1.22106 -2.34739,1.22078 -2.34738,1.22079 -1.7182,0.89376 -1.61423,1.14962 -1.46367,1.37821 -0.777614,0.88953 -1.27794,1.57004 -1.10331,1.77059 -0.91678,1.94786 -0.72205,2.11058 -0.52097,2.2524 -0.31459,2.37173 -0.10768,2.46724 0.10768,2.54211 0.31459,2.5908 0.52097,2.61462 0.70458,2.55031 0.0175,0.0627 0.88423,2.4937 0.0326,0.0921 0.0611,0.16881 1.05621,2.42993 1.22291,2.35373 1.379274,2.25849 0.10266,0.14578 1.5322,2.15715 0.0571,0.0804 1.68169,2.04285 0.0415,0.0505 1.84282,1.93093 1.93861,1.74651 2.02036,1.54676 2.08147,1.33323 2.12223,1.1057 2.14233,0.871 2.14233,0.61939 2.12222,0.37068 2.08148,0.11483 2.02036,-0.14128 1.17422,-0.12595 1.96929,-0.40401 1.87166,-0.65908 1.75022,-0.90858 2.34739,-1.22105 2.34738,-1.22079 2.34712,-1.22079 1.7182,-0.89376 1.61449,-1.14961 1.46367,-1.37822 1.29779,-1.59491 1.12077,-1.79837 0.93133,-1.97829 0.73316,-2.14392 0.52944,-2.28759 0.31935,-2.40876 0.10927,-2.50614 -0.10927,-2.58233"
         inkscape:connector-curvature="0" />
      <path
         id="path2244"
         stroke-width="2.0"
         stroke-opacity="1.0"
         stroke-linejoin="round"
         stroke-linecap="butt"
         stroke="rgb(0, 0, 0)"
         fill="none"
         d="m -70.221966,198.31104 -0.25638,0.1569 -0.21035,0.22648 -0.15636,0.2876 -0.0963,0.33761 -0.0325,0.37439 0.0325,0.3974 0.0963,0.40455 0.15636,0.39635 0.21035,0.37279 0.25638,0.33523 0.29263,0.28443 0.31723,0.22304 0.3302,0.15293 0.32994,0.0767 0.3175,-0.002 0.29236,-0.0812"
         inkscape:connector-curvature="0" />
      <path
         id="path2246"
         stroke-width="2.0"
         stroke-opacity="1.0"
         stroke-linejoin="round"
         stroke-linecap="butt"
         stroke="rgb(0, 0, 0)"
         fill="none"
         d="m -70.221966,205.13121 -0.25638,0.15689 -0.21035,0.22649 -0.15636,0.2876 -0.0963,0.33761 -0.0325,0.37438 0.0325,0.39741 0.0963,0.40455 0.15636,0.39634 0.21035,0.3728 0.25638,0.33523 0.29263,0.28442 0.31723,0.22305 0.3302,0.15293 0.32994,0.0767 0.3175,-0.002 0.29236,-0.0812"
         inkscape:connector-curvature="0" />
      <path
         id="path2248"
         stroke-width="2.0"
         stroke-opacity="1.0"
         stroke-linejoin="round"
         stroke-linecap="butt"
         stroke="rgb(0, 0, 0)"
         fill="none"
         d="m -82.283796,180.44611 -0.26484,0.14155 -0.22067,0.21246 -0.16827,0.27596 -0.10901,0.32809 -0.046,0.36803 0.019,0.3937 0.0833,0.40429 0.1442,0.39925 0.19976,0.37915 0.24765,0.34422 0.28575,0.29581 0.31327,0.23653 0.32834,0.16801 0.33126,0.0931 0.32094,0.0143 0.29872,-0.0648"
         inkscape:connector-curvature="0" />
      <path
         id="path2250"
         stroke-width="2.0"
         stroke-opacity="1.0"
         stroke-linejoin="round"
         stroke-linecap="butt"
         stroke="rgb(0, 0, 0)"
         fill="none"
         d="m -76.990006,185.15252 -0.26485,0.14155 -0.22066,0.21246 -0.16801,0.27596 -0.10928,0.32808 -0.0458,0.36804 0.0188,0.3937 0.0833,0.40428 0.1442,0.39926 0.19976,0.37915 0.24765,0.34422 0.28602,0.2958 0.313,0.23654 0.32861,0.16801 0.331,0.0931 0.3212,0.0143 0.29845,-0.0648"
         inkscape:connector-curvature="0" />
      <path
         id="path2252"
         stroke-width="2.0"
         stroke-opacity="1.0"
         stroke-linejoin="round"
         stroke-linecap="butt"
         stroke="rgb(0, 0, 0)"
         fill="none"
         d="m -98.512006,182.86625 -0.26088,0.14896 -0.21564,0.21934 -0.16272,0.28152 -0.10292,0.33258 -0.0394,0.37148 0.0254,0.39528 0.0894,0.40455 0.15001,0.39794 0.20506,0.37623 0.25188,0.33999 0.28892,0.29052 0.31539,0.23018 0.3294,0.1606 0.33047,0.0852 0.31935,0.007 0.29581,-0.0728"
         inkscape:connector-curvature="0" />
      <path
         id="path2254"
         stroke-width="2.0"
         stroke-opacity="1.0"
         stroke-linejoin="round"
         stroke-linecap="butt"
         stroke="rgb(0, 0, 0)"
         fill="none"
         d="m -94.300376,179.61241 -0.26088,0.14896 -0.21563,0.21934 -0.16246,0.28151 -0.10318,0.33259 -0.0394,0.37121 0.0254,0.39555 0.004,0.0193 0.0855,0.38524 0.15002,0.39793 0.20478,0.37624 0.25189,0.33972 0.28919,0.29078 0.31511,0.22992 0.32941,0.16087 0.25321,0.0651 0.0775,0.0201 0.31935,0.006 0.2958,-0.0725"
         inkscape:connector-curvature="0" />
      <path
         id="path2256"
         stroke-width="2.0"
         stroke-opacity="1.0"
         stroke-linejoin="round"
         stroke-linecap="butt"
         stroke="rgb(0, 0, 0)"
         fill="none"
         d="m -75.161736,214.62525 -0.23469,0.19235 -0.18441,0.25824 -0.019,0.0471 -0.10795,0.2667 -0.0651,0.35772 -2.7e-4,0.38761 0.0646,0.40296 0.12674,0.40217 0.18415,0.38682 0.23442,0.35586 0.20532,0.23204 0.0701,0.0794 0.30638,0.25532 0.32518,0.18891 0.33178,0.11563 0.32544,0.0378 0.30639,-0.0415 0.27596,-0.11932"
         inkscape:connector-curvature="0" />
      <path
         id="path2258"
         stroke-width="2.0"
         stroke-opacity="1.0"
         stroke-linejoin="round"
         stroke-linecap="butt"
         stroke="rgb(0, 0, 0)"
         fill="none"
         d="m -80.308416,216.04606 -0.23442,0.19235 -0.18468,0.25797 -0.127,0.31406 -0.0648,0.35772 -2.6e-4,0.38761 0.0643,0.4027 0.12673,0.40243 0.18415,0.38656 0.23442,0.35586 0.2757,0.31168 0.30612,0.25506 0.32544,0.18918 0.33152,0.11562 0.32544,0.0376 0.30639,-0.0415 0.27596,-0.11906"
         inkscape:connector-curvature="0" />
      <path
         id="path2260"
         stroke-width="2.0"
         stroke-opacity="1.0"
         stroke-linejoin="round"
         stroke-linecap="butt"
         stroke="rgb(0, 0, 0)"
         fill="none"
         d="m -95.722246,207.47674 -0.25082,0.16642 -0.20373,0.23521 -0.1487,0.29502 -0.0878,0.34342 -0.0238,0.37836 0.0413,0.39899 0.10451,0.40428 0.16378,0.39423 0.21722,0.36857 0.26168,0.32914 0.29659,0.27702 0.31988,0.21405 0.33073,0.14287 0.32915,0.0664 0.31458,-0.0127 0.2884,-0.0915"
         inkscape:connector-curvature="0" />
      <path
         id="path2262"
         stroke-width="2.0"
         stroke-opacity="1.0"
         stroke-linejoin="round"
         stroke-linecap="butt"
         stroke="rgb(0, 0, 0)"
         fill="none"
         d="m -99.089336,200.73595 -0.25082,0.16642 -0.20346,0.23522 -0.1487,0.29501 -0.0878,0.34342 -0.0238,0.37836 0.041,0.39899 0.10451,0.40455 0.16405,0.39396 0.21695,0.36883 0.26194,0.32914 0.29634,0.27676 0.31988,0.21405 0.33073,0.14287 0.32914,0.0664 0.31485,-0.0127 0.28813,-0.0915"
         inkscape:connector-curvature="0" />
      <path
         id="path2264"
         stroke-width="2.0"
         stroke-opacity="1.0"
         stroke-linejoin="round"
         stroke-linecap="butt"
         stroke="rgb(0, 0, 0)"
         fill="none"
         d="m 144.19874,65.011845 -0.27649,0.172508 -0.09,0.05503"
         inkscape:connector-curvature="0" />
      <path
         id="path2266"
         stroke-width="2.0"
         stroke-opacity="1.0"
         stroke-linejoin="round"
         stroke-linecap="butt"
         stroke="rgb(0, 0, 0)"
         fill="none"
         d="m 152.71357,86.180893 0.77973,-0.47704 0.55377,-0.33867 0.64003,-0.68898 0.44609,-0.48048 0.008,-0.009 0.0236,-0.0431 v -0.001 l 0.23812,-0.43789 0.21326,-0.39238 0.3376,-0.62124 0.2929,-1.02685 0.20796,-0.728924 0.099,-1.139561 0.0701,-0.809095 -0.099,-1.208352 -0.0701,-0.85778 -0.29289,-1.230577 -0.20797,-0.873654 -0.22278,-0.56515 -0.25267,-0.640556 -0.33761,-0.856192 -0.64029,-1.134533 -0.45429,-0.805392 -0.77999,-1.019439 -0.55351,-0.7239 -0.8898,-0.865717 -0.63183,-0.614363 -0.96547,-0.678391 -0.68553,-0.481542 -1.00409,-0.464873 -0.71279,-0.329935 -0.75168,-0.17489 -0.25242,-0.05874 -0.71278,-0.165894 -0.25321,0.0016 -0.70273,0.005 h -0.01 l -0.68553,0.0045 -0.62389,0.173038 -0.26591,0.07355 -0.63156,0.175154"
         inkscape:connector-curvature="0" />
      <path
         id="path2268"
         stroke-width="2.0"
         stroke-opacity="1.0"
         stroke-linejoin="round"
         stroke-linecap="butt"
         stroke="rgb(0, 0, 0)"
         fill="none"
         d="m 144.19874,65.011845 -0.36645,0.1905 -0.89746,0.466989"
         inkscape:connector-curvature="0" />
      <path
         id="path2270"
         stroke-width="2.0"
         stroke-opacity="1.0"
         stroke-linejoin="round"
         stroke-linecap="butt"
         stroke="rgb(0, 0, 0)"
         fill="none"
         d="m 154.04337,85.489273 0.28813,-0.1786 0.95991,-0.59266 0.26749,-0.29422 0.18098,-0.23204 0.41433,-0.53181 0.0249,-0.0439 0.077,-0.136 0.0574,-0.1016 0.10689,-0.18944 0.23892,-0.86466 0.24342,-0.69823 -0.0497,-0.897998 0.17568,-0.932127 -0.23998,-0.894821 0.0603,-1.112838 -0.36089,-0.885031 -0.10663,-1.205442 -0.42889,-0.880798 -0.17383,-0.59055 -0.18045,-0.613304 -0.45561,-0.859631 -0.6858,-1.13374 -0.42201,-0.799306 -0.97181,-1.017852 -0.36804,-0.722312 -1.11443,-0.853811 -0.34079,-0.660664 -1.11469,-0.638705 -0.35666,-0.614627 -1.00938,-0.393171 -0.4482,-0.536575 -0.78502,-0.157691 -0.0468,-0.0093 -0.57759,-0.392641 -0.61463,0.0042 -0.0172,-0.0032 -0.0373,-0.0071 -0.14155,-0.02699 -0.44053,-0.0844 -0.11113,-0.02117 -0.41778,0.110331 -0.9226,0.216959"
         inkscape:connector-curvature="0" />
      <path
         id="path2272"
         stroke-width="2.0"
         stroke-opacity="1.0"
         stroke-linejoin="round"
         stroke-linecap="butt"
         stroke="rgb(0, 0, 0)"
         fill="none"
         d="m 152.71357,86.180893 1.3298,-0.69162"
         inkscape:connector-curvature="0" />
      <path
         id="path2274"
         stroke-width="2.0"
         stroke-opacity="1.0"
         stroke-linejoin="round"
         stroke-linecap="butt"
         stroke="rgb(0, 0, 0)"
         fill="none"
         d="m 155.0382,59.374103 0.7321,-0.202935 0.78952,-0.218546 0.79454,-0.0056 0.85672,-0.0061 0.82603,0.192352 0.89033,0.207433 0.82655,0.382588 0.89033,0.412485 0.79454,0.558007 0.85646,0.601662 0.73184,0.712523 0.78951,0.767821 0.64188,0.838994 0.69189,0.904345 0.52652,0.933715 0.56753,1.00621 0.39132,0.992453 0.42227,1.069181 0.2413,1.01256 0.25982,1.091671 0.0815,0.994304 0.0879,1.071827"
         inkscape:connector-curvature="0" />
      <path
         id="path2276"
         stroke-width="2.0"
         stroke-opacity="1.0"
         stroke-linejoin="round"
         stroke-linecap="butt"
         stroke="rgb(0, 0, 0)"
         fill="none"
         d="m 182.36066,45.163332 -1.26391,0.65749"
         inkscape:connector-curvature="0" />
      <path
         id="path2278"
         stroke-width="2.0"
         stroke-opacity="1.0"
         stroke-linejoin="round"
         stroke-linecap="butt"
         stroke="rgb(0, 0, 0)"
         fill="none"
         d="m 193.2951,64.347476 0.008,-0.0093 0.0236,-0.04313 v -0.0011 l 0.23812,-0.43815 0.21326,-0.392377 0.33761,-0.621242 0.29289,-1.026848 0.20796,-0.728927 0.099,-1.13956 0.0701,-0.809096 -0.099,-1.208087 -0.0701,-0.858044 -0.29289,-1.230577 -0.20796,-0.873654 -0.47546,-1.205707 -0.33761,-0.856191 -0.64029,-1.134269 -0.45429,-0.805392 -0.77999,-1.019704 -0.55351,-0.7239 -0.88979,-0.865452 -0.63183,-0.614627 -0.96546,-0.678127 -0.68554,-0.481542 -1.00409,-0.464873 -0.71279,-0.3302 -1.00409,-0.233627 -0.71279,-0.165894 -0.25321,0.0019 -0.70273,0.0048 h -0.01 l -0.68553,0.0048 -0.88979,0.246328 -0.63156,0.175154"
         inkscape:connector-curvature="0" />
      <path
         id="path2280"
         stroke-width="2.0"
         stroke-opacity="1.0"
         stroke-linejoin="round"
         stroke-linecap="butt"
         stroke="rgb(0, 0, 0)"
         fill="none"
         d="m 193.90179,64.343243 0.41434,-0.531548 0.0249,-0.04392 0.077,-0.136261 0.0572,-0.101335 0.10716,-0.189706 0.23892,-0.864394 0.24341,-0.6985 -0.0497,-0.897996 0.17568,-0.931862 -0.23997,-0.895086 0.0603,-1.112837 -0.36089,-0.885031 -0.10663,-1.205178 -0.42889,-0.881062 -0.35427,-1.203854 -0.45562,-0.859632 -0.68606,-1.133739 -0.42175,-0.799306 -0.97181,-1.017852 -0.36804,-0.722313 -1.11442,-0.85381 -0.34078,-0.660665 -1.11469,-0.638704 -0.35666,-0.614627 -1.00939,-0.393171 -0.4482,-0.536575 -0.83185,-0.166952 -0.57759,-0.392377 -0.61462,0.0042 -0.0172,-0.0034 -0.0373,-0.0071 -0.14155,-0.02699 -0.44053,-0.0844 -0.11113,-0.02117 -0.41777,0.110331 -0.92261,0.216958"
         inkscape:connector-curvature="0" />
      <path
         id="path2282"
         stroke-width="2.0"
         stroke-opacity="1.0"
         stroke-linejoin="round"
         stroke-linecap="butt"
         stroke="rgb(0, 0, 0)"
         fill="none"
         d="m 193.20011,39.52559 0.73211,-0.202935 0.78898,-0.218281 0.79455,-0.0056 0.85645,-0.0058 0.8263,0.192352 0.89058,0.207169 0.8263,0.382587 0.89138,0.411956 0.79454,0.558007 0.85646,0.601662 0.73184,0.712523 0.78872,0.768085 0.64214,0.838994 0.69189,0.904346 0.52652,0.933715 0.56753,1.006475 0.39132,0.992187 0.42227,1.069181 0.2413,1.012561 0.25983,1.091671 0.0815,0.994304 0.0873,1.072091"
         inkscape:connector-curvature="0" />
      <path
         id="path2284"
         stroke-width="2.0"
         stroke-opacity="1.0"
         stroke-linejoin="round"
         stroke-linecap="butt"
         stroke="rgb(0, 0, 0)"
         fill="none"
         d="m 99.514854,83.120453 -2.34738,1.22079 -0.92631,0.48181"
         inkscape:connector-curvature="0" />
    </g>
    <path
       class="cls-3"
       d="m 72.727665,73.787879 h 6.256339 l 13.13107,12.90512"
       id="path3300"
       inkscape:connector-curvature="0"
       style="fill:none;stroke:#1d1d1b;stroke-width:0.554572;stroke-miterlimit:10" />
    <text
       id="text707"
       y="174.49121"
       x="66.503067"
       style="font-size:8.46667px;line-height:1.25;font-family:sans-serif;stroke-width:0.264583"
       xml:space="preserve"><tspan
         style="stroke-width:0.264583"
         y="174.49121"
         x="66.503067"
         id="tspan705"
         sodipodi:role="line">1</tspan></text>
    <path
       style="fill:none;stroke:#1d1d1b;stroke-width:0.834728;stroke-miterlimit:10"
       inkscape:connector-curvature="0"
       id="path3300-3"
       d="M 73.347633,177.0859 H 64.530684 L 46.025301,156.33973"
       class="cls-3" />
    <path
       style="fill:none;stroke:#1d1d1b;stroke-width:0.554572;stroke-miterlimit:10"
       inkscape:connector-curvature="0"
       id="path3300-6"
       d="m 161.25891,42.531368 h 6.25634 l 13.13107,12.90512"
       class="cls-3" />
    <text
       xml:space="preserve"
       style="font-size:8.46667px;line-height:1.25;font-family:sans-serif;stroke-width:0.264583"
       x="73.289024"
       y="72.557632"
       id="text707-7"><tspan
         sodipodi:role="line"
         id="tspan705-5"
         x="73.289024"
         y="72.557632"
         style="stroke-width:0.264583">2</tspan></text>
    <path
       class="cls-3"
       d="m 270.0756,73.282093 h -7.11011 L 248.04251,51.583416"
       id="path3300-6-3"
       inkscape:connector-curvature="0"
       style="fill:none;stroke:#1d1d1b;stroke-width:0.766605;stroke-miterlimit:10" />
    <text
       id="text707-7-5"
       y="40.822334"
       x="161.40002"
       style="font-size:8.46667px;line-height:1.25;font-family:sans-serif;stroke-width:0.264583"
       xml:space="preserve"><tspan
         style="stroke-width:0.264583"
         y="40.822334"
         x="161.40002"
         id="tspan705-5-6"
         sodipodi:role="line">3</tspan></text>
    <text
       xml:space="preserve"
       style="font-size:8.46667px;line-height:1.25;font-family:sans-serif;stroke-width:0.264583"
       x="264.13626"
       y="71.172585"
       id="text707-7-5-2"><tspan
         sodipodi:role="line"
         id="tspan705-5-6-9"
         x="264.13626"
         y="71.172585"
         style="stroke-width:0.264583">4</tspan></text>
    <text
       style="line-height:1.25;font-family:sans-serif;font-size:8.46666667px;shape-inside:url(#rect438);white-space:pre;"
       id="text436"
       xml:space="preserve" />
    <text
       transform="translate(-28.193335,13.848862)"
       style="font-size:8.46667px;line-height:1.25;font-family:sans-serif;white-space:pre;shape-inside:url(#rect444);"
       id="text442"
       xml:space="preserve"><tspan
         sodipodi:role="line"
         x="181.20898"
         y="131.94024"><tspan>1 - Sennheiser KE14</tspan><tspan
           dx="5.3908844" /></tspan><tspan
         sodipodi:role="line"
         x="181.20898"
         y="142.52358"><tspan>2 - Custom Microphone Tube</tspan><tspan
           dx="5.2089844" /></tspan><tspan
         sodipodi:role="line"
         x="181.20898"
         y="153.10692"><tspan>3 - Sennheiser PCB</tspan><tspan
           dx="5.8042984" /></tspan><tspan
         sodipodi:role="line"
         x="181.20898"
         y="163.69027"><tspan>4 - XLR Socket</tspan></tspan></text>
  </g>
</svg>
