                                                                        S      1
,,17HMic Cap Holder v1,17HMic Cap Holder v1,7Hunknown,7Hunknown,32,38,7,G      1
99,15,,1.,2,2HMM,1,0.08,15H20190107.161234,0.01,10000.,12HraphaelJL2NV, G      2
7Hunknown,11,0,15H20190107.150145;                                      G      3
     186       1                                                00000000D      1
     186            -113       1       0                               0D      2
     514       2                                                00010000D      3
     514                       1       1                               0D      4
     510       3                                                00010000D      5
     510            -113       1       1                               0D      6
     510       4                                                00010000D      7
     510            -113       1       1                               0D      8
     510       5                                                00010000D      9
     510            -113       1       1                               0D     10
     510       6                                                00010000D     11
     510            -113       1       1                               0D     12
     510       7                                                00010000D     13
     510            -113       1       1                               0D     14
     510       8                                                00010000D     15
     510            -113       1       1                               0D     16
     510       9                                                00010000D     17
     510            -113       1       1                               0D     18
     510      10                                                00010000D     19
     510            -113       1       1                               0D     20
     510      11                                                00010000D     21
     510            -113       1       1                               0D     22
     510      12                                                00010000D     23
     510            -113       1       1                               0D     24
     508      13                                                00010000D     25
     508                       1       1                               0D     26
     508      14                                                00010000D     27
     508                       1       1                               0D     28
     508      15                                                00010000D     29
     508                       1       1                               0D     30
     508      16                                                00010000D     31
     508                       1       1                               0D     32
     508      17                                                00010000D     33
     508                       1       1                               0D     34
     508      18                                                00010000D     35
     508                       1       1                               0D     36
     508      19                                                00010000D     37
     508                       1       1                               0D     38
     508      20                                                00010000D     39
     508                       1       1                               0D     40
     508      21                                                00010000D     41
     508                       1       1                               0D     42
     508      22                                                00010000D     43
     508                       1       1                               0D     44
     508      23                                                00010000D     45
     508                       2       1                               0D     46
     508      25                                                00010000D     47
     508                       1       1                               0D     48
     508      26                                                00010000D     49
     508                       1       1                               0D     50
     508      27                                                00010000D     51
     508                       1       1                               0D     52
     508      28                                                00010000D     53
     508                       1       1                               0D     54
     126      29                                                00010000D     55
     126       0               9       0                               0D     56
     126      38                                                00010000D     57
     126       0               2       0                               0D     58
     126      40                                                00010000D     59
     126       0               9       0                               0D     60
     126      49                                                00010000D     61
     126       0              10       0                               0D     62
     126      59                                                00010000D     63
     126       0               2       0                               0D     64
     126      61                                                00010000D     65
     126       0              10       0                               0D     66
     126      71                                                00010000D     67
     126       0               9       0                               0D     68
     126      80                                                00010000D     69
     126       0               2       0                               0D     70
     126      82                                                00010000D     71
     126       0               9       0                               0D     72
     126      91                                                00010000D     73
     126       0               7       0                               0D     74
     126      98                                                00010000D     75
     126       0               7       0                               0D     76
     126     105                                                00010000D     77
     126       0               9       0                               0D     78
     126     114                                                00010000D     79
     126       0               2       0                               0D     80
     126     116                                                00010000D     81
     126       0               9       0                               0D     82
     126     125                                                00010000D     83
     126       0               2       0                               0D     84
     126     127                                                00010000D     85
     126       0               9       0                               0D     86
     128     136                                                00010000D     87
     128       0    -113      11       0                               0D     88
     128     147                                                00010000D     89
     128       0    -113      13       0                               0D     90
     128     160                                                00010000D     91
     128       0    -113       4       0                               0D     92
     128     164                                                00010000D     93
     128       0    -113      11       0                               0D     94
     128     175                                                00010000D     95
     128       0    -113       3       0                               0D     96
     128     178                                                00010000D     97
     128       0    -113      11       0                               0D     98
     128     189                                                00010000D     99
     128       0    -113       3       0                               0D    100
     128     192                                                00010000D    101
     128       0    -113      11       0                               0D    102
     128     203                                                00010000D    103
     128       0    -113       3       0                               0D    104
     128     206                                                00010000D    105
     128       0    -113       3       0                               0D    106
     502     209                                                00010000D    107
     502                       6       1                               0D    108
     504     215                                                00010001D    109
     504                       5       1                               0D    110
     406     220                                                00000000D    111
     406                       1      15                               0D    112
     314     221                                                00000200D    113
     314                       2       0                               0D    114
186,3,1,0,0,1,111;                                                     1P      1
514,10,5,1,7,1,9,1,11,1,13,1,15,1,17,1,19,1,21,1,23,1;                 3P      2
510,87,1,1,25;                                                         5P      3
510,89,1,1,27;                                                         7P      4
510,91,2,1,29,31;                                                      9P      5
510,93,1,1,33;                                                        11P      6
510,95,2,1,35,37;                                                     13P      7
510,97,1,1,39;                                                        15P      8
510,99,2,1,41,43;                                                     17P      9
510,101,1,1,45;                                                       19P     10
510,103,2,1,47,49;                                                    21P     11
510,105,2,1,51,53;                                                    23P     12
508,4,0,109,1,0,0,0,109,2,1,0,0,109,3,0,0,0,109,2,0,0;                25P     13
508,4,0,109,4,0,0,0,109,5,1,0,0,109,6,1,0,0,109,5,0,0;                27P     14
508,1,0,109,6,0,0;                                                    29P     15
508,1,0,109,1,1,0;                                                    31P     16
508,4,0,109,7,0,0,0,109,8,1,0,0,109,9,1,0,0,109,8,0,0;                33P     17
508,2,0,109,10,0,0,0,109,11,0,0;                                      35P     18
508,1,0,109,9,0,0;                                                    37P     19
508,4,0,109,12,0,0,0,109,13,1,0,0,109,14,1,0,0,109,13,0,0;            39P     20
508,1,0,109,14,0,0;                                                   41P     21
508,1,0,109,3,1,0;                                                    43P     22
508,5,0,109,10,1,0,0,109,15,1,0,0,109,16,1,0,0,109,15,0,0,0,109,      45P     23
11,1,0;                                                               45P     24
508,1,0,109,7,1,0;                                                    47P     25
508,1,0,109,4,1,0;                                                    49P     26
508,1,0,109,16,0,0;                                                   51P     27
508,1,0,109,12,1,0;                                                   53P     28
126,8,2,0,1,0,0,-3.14159265358979,-3.14159265358979,                  55P     29
-3.14159265358979,-1.5707963267949,-1.5707963267949,0.,0.,            55P     30
1.5707963267949,1.5707963267949,3.14159265358979,                     55P     31
3.14159265358979,3.14159265358979,1.,0.707106781186548,1.,            55P     32
0.707106781186548,1.,0.707106781186548,1.,0.707106781186548,1.,       55P     33
6.,40.,7.34788079488412D-16,6.,40.,6.,-3.67394039744206D-16,40.,      55P     34
6.,-6.,40.,6.,-6.,40.,0.,-6.,40.,-6.,-3.67394039744206D-16,40.,       55P     35
-6.,6.,40.,-6.,6.,40.,-7.34788079488412D-16,-3.14159265358979,        55P     36
3.14159265358979,0.,0.,0.;                                            55P     37
126,1,1,0,0,1,0,0.,0.,0.166666666666666,0.166666666666666,1.,1.,      57P     38
6.,40.,0.,6.,39.,0.,0.,0.166666666666666,0.,0.,0.;                    57P     39
126,8,2,0,1,0,0,-3.14159265358979,-3.14159265358979,                  59P     40
-3.14159265358979,-1.5707963267949,-1.5707963267949,0.,0.,            59P     41
1.5707963267949,1.5707963267949,3.14159265358979,                     59P     42
3.14159265358979,3.14159265358979,1.,0.707106781186548,1.,            59P     43
0.707106781186548,1.,0.707106781186548,1.,0.707106781186548,1.,       59P     44
6.,39.,-7.34788079488412D-16,6.,39.,-6.,-3.67394039744206D-16,        59P     45
39.,-6.,-6.,39.,-6.,-6.,39.,0.,-6.,39.,6.,-3.67394039744206D-16,      59P     46
39.,6.,6.,39.,6.,6.,39.,7.34788079488412D-16,-3.14159265358979,       59P     47
3.14159265358979,0.,0.,0.;                                            59P     48
126,8,2,0,1,0,0,-3.14159265358979,-3.14159265358979,                  61P     49
-3.14159265358979,-1.5707963267949,-1.5707963267949,0.,0.,            61P     50
1.5707963267949,1.5707963267949,3.14159265358979,                     61P     51
3.14159265358979,3.14159265358979,1.,0.707106781186548,1.,            61P     52
0.707106781186547,1.,0.707106781186547,1.,0.707106781186548,1.,       61P     53
7.265,46.,8.89705899580552D-16,7.265,46.,7.265,                       61P     54
-4.44852949790276D-16,46.,7.265,-7.265,46.,7.265,-7.265,46.,0.,       61P     55
-7.265,46.,-7.265,-4.44852949790276D-16,46.,-7.265,7.265,46.,         61P     56
-7.265,7.265,46.,-8.89705899580552D-16,-3.14159265358979,             61P     57
3.14159265358979,0.,0.,0.;                                            61P     58
126,1,1,0,0,1,0,0.,0.,0.825877494838266,0.825877494838266,1.,1.,      63P     59
7.265,46.,0.,7.265,40.,0.,0.,0.825877494838266,0.,0.,0.;              63P     60
126,8,2,0,1,0,0,-3.14159265358979,-3.14159265358979,                  65P     61
-3.14159265358979,-1.5707963267949,-1.5707963267949,0.,0.,            65P     62
1.5707963267949,1.5707963267949,3.14159265358979,                     65P     63
3.14159265358979,3.14159265358979,1.,0.707106781186548,1.,            65P     64
0.707106781186547,1.,0.707106781186547,1.,0.707106781186548,1.,       65P     65
7.265,40.,8.89705899580552D-16,7.265,40.,7.265,                       65P     66
-4.44852949790276D-16,40.,7.265,-7.265,40.,7.265,-7.265,40.,0.,       65P     67
-7.265,40.,-7.265,-4.44852949790276D-16,40.,-7.265,7.265,40.,         65P     68
-7.265,7.265,40.,-8.89705899580552D-16,-3.14159265358979,             65P     69
3.14159265358979,0.,0.,0.;                                            65P     70
126,8,2,0,1,0,0,-3.14159265358979,-3.14159265358979,                  67P     71
-3.14159265358979,-1.5707963267949,-1.5707963267949,0.,0.,            67P     72
1.5707963267949,1.5707963267949,3.14159265358979,                     67P     73
3.14159265358979,3.14159265358979,1.,0.707106781186548,1.,            67P     74
0.707106781186547,1.,0.707106781186547,1.,0.707106781186548,1.,       67P     75
9.,46.,-1.10218211923262D-15,9.,46.,-9.,-5.51091059616309D-16,        67P     76
46.,-9.,-9.,46.,-9.,-9.,46.,0.,-9.,46.,9.,-5.51091059616309D-16,      67P     77
46.,9.,9.,46.,9.,9.,46.,1.10218211923262D-15,-3.14159265358979,       67P     78
3.14159265358979,0.,0.,0.;                                            67P     79
126,1,1,0,0,1,0,0.,0.,0.333333333333333,0.333333333333333,1.,1.,      69P     80
9.,46.,0.,9.,43.,0.,0.,0.333333333333333,0.,0.,0.;                    69P     81
126,8,2,0,1,0,0,-3.14159265358979,-3.14159265358979,                  71P     82
-3.14159265358979,-1.5707963267949,-1.5707963267949,0.,0.,            71P     83
1.5707963267949,1.5707963267949,3.14159265358979,                     71P     84
3.14159265358979,3.14159265358979,1.,0.707106781186548,1.,            71P     85
0.707106781186547,1.,0.707106781186547,1.,0.707106781186548,1.,       71P     86
9.,43.,-1.10218211923262D-15,9.,43.,-9.,-5.51091059616309D-16,        71P     87
43.,-9.,-9.,43.,-9.,-9.,43.,0.,-9.,43.,9.,-5.51091059616309D-16,      71P     88
43.,9.,9.,43.,9.,9.,43.,1.10218211923262D-15,-3.14159265358979,       71P     89
3.14159265358979,0.,0.,0.;                                            71P     90
126,4,2,0,0,0,0,-1.22464679914735D-16,-1.22464679914735D-16,          73P     91
-1.22464679914735D-16,1.5707963267949,1.5707963267949,                73P     92
3.14159265358979,3.14159265358979,3.14159265358979,1.,                73P     93
0.707106781186548,1.,0.707106781186548,1.,10.,43.,                    73P     94
-1.22464679914735D-15,10.,43.,10.,6.12323399573677D-16,43.,10.,       73P     95
-10.,43.,10.,-10.,43.,1.22464679914735D-15,                           73P     96
-1.22464679914735D-16,3.14159265358979,0.,0.,0.;                      73P     97
126,4,2,0,0,0,0,3.14159265358979,3.14159265358979,                    75P     98
3.14159265358979,4.71238898038469,4.71238898038469,                   75P     99
6.28318530717959,6.28318530717959,6.28318530717959,1.,                75P    100
0.707106781186548,1.,0.707106781186548,1.,-10.,43.,                   75P    101
1.22464679914735D-15,-10.,43.,-10.,-1.83697019872103D-15,43.,         75P    102
-10.,10.,43.,-10.,10.,43.,-2.44929359829471D-15,                      75P    103
3.14159265358979,6.28318530717959,0.,0.,0.;                           75P    104
126,8,2,0,1,0,0,-3.14159265358979,-3.14159265358979,                  77P    105
-3.14159265358979,-1.5707963267949,-1.5707963267949,0.,0.,            77P    106
1.5707963267949,1.5707963267949,3.14159265358979,                     77P    107
3.14159265358979,3.14159265358979,1.,0.707106781186548,1.,            77P    108
0.707106781186548,1.,0.707106781186548,1.,0.707106781186548,1.,       77P    109
-8.,0.,9.79717439317883D-16,-8.,0.,8.,4.89858719658941D-16,0.,        77P    110
8.,8.,0.,8.,8.,0.,0.,8.,0.,-8.,4.89858719658941D-16,0.,-8.,-8.,       77P    111
0.,-8.,-8.,0.,-9.79717439317883D-16,-3.14159265358979,                77P    112
3.14159265358979,0.,0.,0.;                                            77P    113
126,1,1,0,0,1,0,0.,0.,4.875,4.875,1.,1.,-8.,0.,0.,-8.,39.,0.,0.,      79P    114
4.875,0.,0.,0.;                                                       79P    115
126,8,2,0,1,0,0,-3.14159265358979,-3.14159265358979,                  81P    116
-3.14159265358979,-1.5707963267949,-1.5707963267949,0.,0.,            81P    117
1.5707963267949,1.5707963267949,3.14159265358979,                     81P    118
3.14159265358979,3.14159265358979,1.,0.707106781186548,1.,            81P    119
0.707106781186548,1.,0.707106781186548,1.,0.707106781186548,1.,       81P    120
-8.,39.,9.79717439317883D-16,-8.,39.,8.,4.89858719658941D-16,         81P    121
39.,8.,8.,39.,8.,8.,39.,0.,8.,39.,-8.,4.89858719658941D-16,39.,       81P    122
-8.,-8.,39.,-8.,-8.,39.,-9.79717439317883D-16,-3.14159265358979,      81P    123
3.14159265358979,0.,0.,0.;                                            81P    124
126,1,1,0,0,1,0,-4.3,-4.3,0.,0.,1.,1.,-10.,43.,0.,-10.,0.,0.,         83P    125
-4.3,0.,0.,0.,0.;                                                     83P    126
126,8,2,0,1,0,0,-3.14159265358979,-3.14159265358979,                  85P    127
-3.14159265358979,-1.5707963267949,-1.5707963267949,0.,0.,            85P    128
1.5707963267949,1.5707963267949,3.14159265358979,                     85P    129
3.14159265358979,3.14159265358979,1.,0.707106781186548,1.,            85P    130
0.707106781186547,1.,0.707106781186547,1.,0.707106781186548,1.,       85P    131
-10.,0.,1.22464679914735D-15,-10.,0.,10.,6.12323399573677D-16,        85P    132
0.,10.,10.,0.,10.,10.,0.,0.,10.,0.,-10.,6.12323399573677D-16,0.,      85P    133
-10.,-10.,0.,-10.,-10.,0.,-1.22464679914735D-15,                      85P    134
-3.14159265358979,3.14159265358979,0.,0.,0.;                          85P    135
128,1,8,1,2,0,1,0,0,1,0.,0.,0.166666666666666,0.166666666666666,      87P    136
-3.14159265358979,-3.14159265358979,-3.14159265358979,                87P    137
-1.5707963267949,-1.5707963267949,0.,0.,1.5707963267949,              87P    138
1.5707963267949,3.14159265358979,3.14159265358979,                    87P    139
3.14159265358979,1.,1.,0.707106781186548,0.707106781186548,1.,        87P    140
1.,0.707106781186548,0.707106781186548,1.,1.,0.707106781186548,       87P    141
0.707106781186548,1.,1.,0.707106781186548,0.707106781186548,1.,       87P    142
1.,6.,40.,0.,6.,39.,0.,6.,40.,6.,6.,39.,6.,0.,40.,6.,0.,39.,6.,       87P    143
-6.,40.,6.,-6.,39.,6.,-6.,40.,0.,-6.,39.,0.,-6.,40.,-6.,-6.,39.,      87P    144
-6.,0.,40.,-6.,0.,39.,-6.,6.,40.,-6.,6.,39.,-6.,6.,40.,0.,6.,         87P    145
39.,0.,0.,0.166666666666666,-3.14159265358979,3.14159265358979;       87P    146
128,1,8,1,2,0,1,0,0,1,0.,0.,0.825877494838266,0.825877494838266,      89P    147
-3.14159265358979,-3.14159265358979,-3.14159265358979,                89P    148
-1.5707963267949,-1.5707963267949,0.,0.,1.5707963267949,              89P    149
1.5707963267949,3.14159265358979,3.14159265358979,                    89P    150
3.14159265358979,1.,1.,0.707106781186548,0.707106781186548,1.,        89P    151
1.,0.707106781186548,0.707106781186548,1.,1.,0.707106781186548,       89P    152
0.707106781186548,1.,1.,0.707106781186548,0.707106781186548,1.,       89P    153
1.,7.265,46.,0.,7.265,40.,0.,7.265,46.,7.265,7.265,40.,7.265,0.,      89P    154
46.,7.265,0.,40.,7.265,-7.265,46.,7.265,-7.265,40.,7.265,-7.265,      89P    155
46.,0.,-7.265,40.,0.,-7.265,46.,-7.265,-7.265,40.,-7.265,0.,46.,      89P    156
-7.265,0.,40.,-7.265,7.265,46.,-7.265,7.265,40.,-7.265,7.265,         89P    157
46.,0.,7.265,40.,0.,0.,0.825877494838266,-3.14159265358979,           89P    158
3.14159265358979;                                                     89P    159
128,1,1,1,1,0,0,1,0,0,-0.7275,-0.7275,0.7275,0.7275,-0.7275,          91P    160
-0.7275,0.7275,0.7275,1.,1.,1.,1.,7.275,40.,-7.275,-7.275,40.,        91P    161
-7.275,7.275,40.,7.275,-7.275,40.,7.275,-0.7275,0.7275,-0.7275,       91P    162
0.7275;                                                               91P    163
128,1,8,1,2,0,1,0,0,1,0.,0.,0.333333333333333,0.333333333333333,      93P    164
-3.14159265358979,-3.14159265358979,-3.14159265358979,                93P    165
-1.5707963267949,-1.5707963267949,0.,0.,1.5707963267949,              93P    166
1.5707963267949,3.14159265358979,3.14159265358979,                    93P    167
3.14159265358979,1.,1.,0.707106781186548,0.707106781186548,1.,        93P    168
1.,0.707106781186548,0.707106781186548,1.,1.,0.707106781186548,       93P    169
0.707106781186548,1.,1.,0.707106781186548,0.707106781186548,1.,       93P    170
1.,9.,43.,0.,9.,46.,0.,9.,43.,9.,9.,46.,9.,0.,43.,9.,0.,46.,9.,       93P    171
-9.,43.,9.,-9.,46.,9.,-9.,43.,0.,-9.,46.,0.,-9.,43.,-9.,-9.,46.,      93P    172
-9.,0.,43.,-9.,0.,46.,-9.,9.,43.,-9.,9.,46.,-9.,9.,43.,0.,9.,         93P    173
46.,0.,0.,0.333333333333333,-3.14159265358979,3.14159265358979;       93P    174
128,1,1,1,1,0,0,1,0,0,-1.001,-1.001,1.001,1.001,-1.001,-1.001,        95P    175
1.001,1.001,1.,1.,1.,1.,10.01,43.,-10.01,-10.01,43.,-10.01,           95P    176
10.01,43.,10.01,-10.01,43.,10.01,-1.001,1.001,-1.001,1.001;           95P    177
128,1,8,1,2,0,1,0,0,1,0.,0.,4.875,4.875,-3.14159265358979,            97P    178
-3.14159265358979,-3.14159265358979,-1.5707963267949,                 97P    179
-1.5707963267949,0.,0.,1.5707963267949,1.5707963267949,               97P    180
3.14159265358979,3.14159265358979,3.14159265358979,1.,1.,             97P    181
0.707106781186548,0.707106781186548,1.,1.,0.707106781186548,          97P    182
0.707106781186548,1.,1.,0.707106781186548,0.707106781186548,1.,       97P    183
1.,0.707106781186548,0.707106781186548,1.,1.,-8.,0.,0.,-8.,39.,       97P    184
0.,-8.,0.,8.,-8.,39.,8.,0.,0.,8.,0.,39.,8.,8.,0.,8.,8.,39.,8.,        97P    185
8.,0.,0.,8.,39.,0.,8.,0.,-8.,8.,39.,-8.,0.,0.,-8.,0.,39.,-8.,         97P    186
-8.,0.,-8.,-8.,39.,-8.,-8.,0.,0.,-8.,39.,0.,0.,4.875,                 97P    187
-3.14159265358979,3.14159265358979;                                   97P    188
128,1,1,1,1,0,0,1,0,0,-0.801,-0.801,0.801,0.801,-0.801,-0.801,        99P    189
0.801,0.801,1.,1.,1.,1.,8.01,39.,8.01,-8.01,39.,8.01,8.01,39.,        99P    190
-8.01,-8.01,39.,-8.01,-0.801,0.801,-0.801,0.801;                      99P    191
128,1,8,1,2,0,1,0,0,1,0.,0.,4.3,4.3,-3.14159265358979,               101P    192
-3.14159265358979,-3.14159265358979,-1.5707963267949,                101P    193
-1.5707963267949,0.,0.,1.5707963267949,1.5707963267949,              101P    194
3.14159265358979,3.14159265358979,3.14159265358979,1.,1.,            101P    195
0.707106781186548,0.707106781186548,1.,1.,0.707106781186548,         101P    196
0.707106781186548,1.,1.,0.707106781186548,0.707106781186548,1.,      101P    197
1.,0.707106781186548,0.707106781186548,1.,1.,-10.,43.,0.,-10.,       101P    198
0.,0.,-10.,43.,10.,-10.,0.,10.,0.,43.,10.,0.,0.,10.,10.,43.,10.,     101P    199
10.,0.,10.,10.,43.,0.,10.,0.,0.,10.,43.,-10.,10.,0.,-10.,0.,43.,     101P    200
-10.,0.,0.,-10.,-10.,43.,-10.,-10.,0.,-10.,-10.,43.,0.,-10.,0.,      101P    201
0.,0.,4.3,-3.14159265358979,3.14159265358979;                        101P    202
128,1,1,1,1,0,0,1,0,0,-0.901,-0.901,0.901,0.901,-0.901,-0.901,       103P    203
0.901,0.901,1.,1.,1.,1.,-9.01,46.,9.01,9.01,46.,9.01,-9.01,46.,      103P    204
-9.01,9.01,46.,-9.01,-0.901,0.901,-0.901,0.901;                      103P    205
128,1,1,1,1,0,0,1,0,0,-1.001,-1.001,1.001,1.001,-1.001,-1.001,       105P    206
1.001,1.001,1.,1.,1.,1.,10.01,0.,10.01,-10.01,0.,10.01,10.01,0.,     105P    207
-10.01,-10.01,0.,-10.01,-1.001,1.001,-1.001,1.001;                   105P    208
502,11,6.,40.,-7.34788079488412D-16,6.,39.,                          107P    209
-7.34788079488412D-16,7.265,46.,-8.89705899580552D-16,7.265,40.,     107P    210
-8.89705899580552D-16,9.,46.,-1.10218211923262D-15,9.,43.,           107P    211
-1.10218211923262D-15,10.,43.,-1.22464679914735D-15,-10.,43.,0.,     107P    212
-8.,0.,9.79717439317883D-16,-8.,39.,9.79717439317883D-16,-10.,       107P    213
0.,1.22464679914735D-15;                                             107P    214
504,16,55,107,1,107,1,57,107,1,107,2,59,107,2,107,2,61,107,3,        109P    215
107,3,63,107,3,107,4,65,107,4,107,4,67,107,5,107,5,69,107,5,107,     109P    216
6,71,107,6,107,6,73,107,7,107,8,75,107,8,107,7,77,107,9,107,9,       109P    217
79,107,9,107,10,81,107,10,107,10,83,107,8,107,11,85,107,11,107,      109P    218
11;                                                                  109P    219
406,1,5HBody1;                                                       111P    220
314,62.7450980392157,62.7450980392157,62.7450980392157,13HSteel      113P    221
- Satin;                                                             113P    222
S      1G      3D    114P    222                                        T      1
